# xmcd
#
# Track frame offsets:
#	150
#	11137
#	27550
#	40350
#	56012
#	66612
#	79862
#	89687
#	102500
#	112262
#	123062
#	136275
#	148875
#	159750
#	169775
#	180337
#	190850
#	207100
#	216900
#	228300
#
# Disc length: 3243
#
# Revision: 1
# Processed by: cddbd v1.5.1PL0 Copyright (c) Steve Scherf et al.
# Submitted via: ExactAudioCopy v0.95a5
# Normalized: r0:TDELIM( - )
#
DISCID=270ca914
DTITLE=Various Artist - Kings and Queens Of Country
DYEAR=1900
DGENRE=Country
TTITLE0=Patsy Cline - Honky Tonk Merry Go Round
TTITLE1=Don Gibson - Green, Green Grass Of Home
TTITLE2=Jo Anne Houston - Blue, Blue Day
TTITLE3=Kenny Rogers - For The Good Times
TTITLE4=Billie Jo Spears - It Makes No Difference Now
TTITLE5=Faron Young - Apartment Number 9
TTITLE6=Lynn Anderson - Snowbird
TTITLE7=Don Williams - Coming Apart
TTITLE8=Skeeter Davis - Am I That Easy To Forget
TTITLE9=Johnny Russell - Act Naturally
TTITLE10=Wanda Jackson - Raining In My Heart
TTITLE11=Del Shannon - She Still Thinks I Care
TTITLE12=Dolly Parton - It Wasn't God Who Made Honky Tonk Angels
TTITLE13=Stonewall Jackson - Shake' em Up and Roll' em
TTITLE14=Anne Murray - Some Birds
TTITLE15=Johnny Paycheck - A.11
TTITLE16=Jeannie C. Riley - The Cotton Patch
TTITLE17=George Jones - Lonely Street
TTITLE18=Jo Anne Houston - The Race Is On
TTITLE19=Willie Nelson - Face Of A Fighter
EXTD=
EXTT0=
EXTT1=
EXTT2=
EXTT3=
EXTT4=
EXTT5=
EXTT6=
EXTT7=
EXTT8=
EXTT9=
EXTT10=
EXTT11=
EXTT12=
EXTT13=
EXTT14=
EXTT15=
EXTT16=
EXTT17=
EXTT18=
EXTT19=
PLAYORDER=
